# xmcd
#
# Track frame offsets:
#	180
#	15660
#	32494
#	45063
#	58257
#	71716
#	81924
#	92909
#	106095
#	117163
#
# Disc length: 1691 seconds
#
# Revision: 0
# Processed by: cddbd v1.4PL0 Copyright (c) Steve Scherf et al.
# Submitted via: dBpowerAMP V4.0
#
DISCID=7606990a
DTITLE=Conway Twitty - Only Make Believe
DYEAR=1900
DGENRE=
TTITLE0=Touch The Hand
TTITLE1=Don't Cry Joni
TTITLE2=This Time I've Hurt Her More Than She Loves Me
TTITLE3=After All The Good Is Gone
TTITLE4=The Games That Daddies Play
TTITLE5=I Can't Believe She Gives It  All To Me
TTITLE6=As Soon As I Hang Up The Phone
TTITLE7=Danny Boy 
TTITLE8=I'ts Only Make Believe
TTITLE9=I'll Try
EXTD=\n\n                                                                               Les
EXTT0=
EXTT1=
EXTT2=
EXTT3=
EXTT4=
EXTT5=
EXTT6=
EXTT7=
EXTT8=
EXTT9=
PLAYORDER=
